<?xml version="1.0" encoding="UTF-8"?>
<svg id="Calque_1" xmlns="http://www.w3.org/2000/svg" version="1.1" viewBox="0 0 2551.1811024 1984.2519685">
  <!-- Generator: Adobe Illustrator 30.0.0, SVG Export Plug-In . SVG Version: 2.1.1 Build 123)  -->
  <defs>
    <style>
      .st0 {
        fill: #1d1d1b;
      }

      .st1 {
        fill: #1da653;
      }

      .st2 {
        fill: #060707;
      }
    </style>
  </defs>
  <g>
    <path class="st0" d="M874.7289038,1117.6904033c-.3466797-.7910156-.84375-1.3896484-1.4799805-1.7802734-.5913086-.3623047-1.2114258-.5458984-1.8432617-.5458984l-.0761719-.1357422-.0600586.1357422-.3671875.0175781c-1.3203125.1582031-2.4077148.9980469-2.9833984,2.3046875l-23.7104492,53.8955078c-.2270508.5068359-.3417969,1.0498047-.3417969,1.6132812,0,1.0966797.4614258,2.0576172,1.2924805,2.7011719.6586914.5146484,1.4765625.7861328,2.3642578.7861328h.1240234c.6616211,0,2.2958984-.2265625,3.1567383-2.2851562l6.0375977-13.7490234h28.8789062l6.0395508,13.7919922c.6186523,1.4042969,1.8139648,2.2421875,3.1972656,2.2421875h.1240234c.875,0,1.7080078-.3164062,2.4023438-.9101562.809082-.6855469,1.2543945-1.6289062,1.2543945-2.65625,0-.5136719-.1157227-1.03125-.3349609-1.5185547l-23.6743164-53.9072266ZM859.9881812,1153.4755596l11.3286133-25.7880859,11.2675781,25.7880859h-22.5961914Z"/>
    <path class="st0" d="M982.7176734,1169.4706767h-31.5053711v-50.3818359c0-2.2158203-1.4697266-3.7636719-3.5742188-3.7636719h-.0415039c-2.1289062,0-3.6157227,1.5478516-3.6157227,3.7636719v53.9882812c0,2.1230469,1.4868164,3.6054688,3.6157227,3.6054688h35.1210938c.9511719,0,1.8212891-.2763672,2.5234375-.8046875.890625-.6757812,1.3813477-1.6845703,1.3813477-2.8798828,0-1.6992188-1.222168-3.5273438-3.9047852-3.5273438Z"/>
    <path class="st0" d="M1059.1161109,1115.3251689h-42.3105469c-2.152832,0-3.6567383,1.4667969-3.6567383,3.6054688,0,2.1230469,1.5039062,3.6054688,3.6567383,3.6054688h17.5810547v50.5410156c0,2.1230469,1.5039062,3.6054688,3.6982422,3.6054688,2.1044922,0,3.5742188-1.4824219,3.5742188-3.6054688v-50.5410156h17.4570312c2.1044922,0,3.5742188-1.4824219,3.5742188-3.6445312,0-2.0996094-1.4697266-3.5664062-3.5742188-3.5664062Z"/>
    <path class="st0" d="M1148.8597632,1169.4706767h-35.5546875v-20.9082031h27.9931641c.9042969,0,1.7045898-.2226562,2.3813477-.6640625.9682617-.6337891,1.5239258-1.6904297,1.5239258-2.9414062,0-1.2070312-.5532227-2.2626953-1.5273438-2.9042969-.6743164-.4394531-1.4746094-.6621094-2.3779297-.6621094h-27.9931641v-18.8544922h34.7285156c.9858398,0,1.8330078-.2734375,2.5141602-.8095703.8432617-.6621094,1.3076172-1.6552734,1.3076172-2.8349609,0-1.7177734-1.1958008-3.5664062-3.8217773-3.5664062h-38.34375c-2.1289062,0-3.6157227,1.4667969-3.6157227,3.5664062v54.1855469c0,2.1230469,1.4868164,3.6054688,3.6157227,3.6054688h39.1699219c.9863281,0,1.8334961-.2734375,2.5166016-.8115234.8422852-.6621094,1.3056641-1.6542969,1.3056641-2.8339844,0-1.7177734-1.1962891-3.5664062-3.8222656-3.5664062Z"/>
    <path class="st0" d="M1239.1507788,1146.3407939c2.2548828-3.2568359,3.3984375-6.9384766,3.3984375-10.9414062,0-3.6074219-.9492188-7.0009766-2.8217773-10.0849609-1.8574219-3.0576172-4.4091797-5.5136719-7.5839844-7.2988281-3.1743164-1.7851562-6.6723633-2.6904297-10.3984375-2.6904297h-22.4360352c-2.1289062,0-3.6157227,1.4667969-3.6157227,3.5664062v54.1855469c0,2.1230469,1.4868164,3.6054688,3.6572266,3.6054688,2.1044922,0,3.5742188-1.4824219,3.5742188-3.6054688v-17.7216797h18.8203125c1.2944336,0,2.5595703-.1064453,3.7817383-.3164062l8.4628906,19.4257812c.3662109.7714844.9248047,1.3740234,1.6132812,1.7431641.5874023.3144531,1.1933594.4746094,1.8017578.4746094h.1240234c.9282227,0,1.7905273-.3564453,2.4941406-1.03125.7231445-.6923828,1.121582-1.6064453,1.121582-2.5742188,0-.3310547-.0595703-.6259766-.1625977-1.0224609l-8.4492188-19.5820312c2.6420898-1.5419922,4.8613281-3.5966797,6.6181641-6.1318359ZM1202.9247046,1122.4970439h18.8203125c2.5366211,0,4.7871094.5683594,6.8793945,1.7363281,2.0805664,1.1621094,3.6694336,2.6953125,4.8564453,4.6845703,1.1806641,1.9814453,1.7543945,4.1015625,1.7543945,6.4814453,0,2.3496094-.5717773,4.4404297-1.7480469,6.390625-1.1855469,1.9667969-2.7734375,3.4824219-4.8535156,4.6328125-2.0947266,1.1582031-4.3476562,1.7216797-6.8886719,1.7216797h-18.8203125v-25.6474609Z"/>
    <path class="st0" d="M1337.974021,1115.3251689c-2.1523438,0-3.65625,1.4667969-3.65625,3.5664062v44.4931641l-39.1347656-46.4638672c-.9345703-1.0585938-1.9824219-1.5957031-3.1142578-1.5957031l-.3896484.0068359c-.2363281.0175781-.4560547.0517578-.6601562.1005859l-.4990234-.59375v.7490234c-.6435547.2519531-1.0839844.6386719-1.3662109.9716797-.565918.6650391-.8652344,1.4707031-.8652344,2.3320312v53.9873047c0,.9511719.2607422,1.7783203.7714844,2.4521484.65625.8720703,1.6665039,1.3515625,2.8847656,1.3515625,2.1054688,0,3.5751953-1.5644531,3.5751953-3.8037109v-44.3271484l39.1367188,46.5292969.0820312.0927734c.9306641,1.0009766,1.9501953,1.5087891,3.0292969,1.5087891h.2480469c.3085938,0,.6035156-.0332031.8828125-.0976562l.4189453.4970703v-.6220703c1.3837891-.5068359,2.2724609-1.8398438,2.2724609-3.5810547v-53.9873047c0-2.0996094-1.4697266-3.5664062-3.6162109-3.5664062Z"/>
    <path class="st0" d="M1417.074607,1117.6874736c-.3476562-.7900391-.8447266-1.3876953-1.4814453-1.7783203-.5917969-.3613281-1.2109375-.5449219-1.8408203-.5449219l-.0771484-.1357422-.0595703.1357422-.3662109.0175781c-1.3193359.1572266-2.40625.9970703-2.9833984,2.3046875l-23.7089844,53.890625c-.2275391.5078125-.34375,1.0517578-.34375,1.6181641,0,1.0996094.4628906,2.0615234,1.2910156,2.6992188.6582031.515625,1.4765625.7880859,2.3662109.7880859h.1240234c.6611328,0,2.2949219-.2265625,3.15625-2.2851562l6.0371094-13.7490234h28.8789062l6.0410156,13.7939453c.6191406,1.4023438,1.8144531,2.2402344,3.1962891,2.2402344h.1240234c.875,0,1.7080078-.3164062,2.4003906-.9082031.8105469-.6865234,1.2568359-1.6298828,1.2568359-2.6582031,0-.5078125-.1142578-1.0224609-.3349609-1.5185547l-23.6757812-53.9101562ZM1402.3353491,1153.4755596l11.328125-25.7880859,11.2675781,25.7880859h-22.5957031Z"/>
    <path class="st0" d="M1535.8890601,1115.3251689c-2.1523438,0-3.65625,1.4667969-3.65625,3.5664062v44.4931641l-39.1347656-46.4638672c-.9345703-1.0585938-1.9824219-1.5957031-3.1142578-1.5957031l-.3896484.0068359c-.2363281.0175781-.4560547.0517578-.6601562.1005859l-.4990234-.59375v.7490234c-.6435547.2519531-1.0839844.6386719-1.3662109.9716797-.5664062.6650391-.8652344,1.4707031-.8652344,2.3320312v53.9873047c0,.9511719.2607422,1.7783203.7714844,2.4521484.6562412.8720703,1.6660156,1.3515625,2.8847656,1.3515625,2.1054688,0,3.5751953-1.5644531,3.5751953-3.8037109v-44.3271484l39.1367188,46.5292969.0820312.0927734c.9306641,1.0009766,1.9501953,1.5087891,3.0292969,1.5087891h.2480469c.3085938,0,.6035156-.0332031.8828125-.0976562l.4189453.4970703v-.6220703c1.3837891-.5068359,2.2724609-1.8398438,2.2724609-3.5810547v-53.9873047c0-2.0996094-1.4697266-3.5664062-3.6162109-3.5664062Z"/>
    <path class="st0" d="M1638.1732398,1121.8642314c-2.8701172-2.2617188-6.0439453-4.0322266-9.4335938-5.2636719-3.4130859-1.2392578-7.0712891-1.8681641-10.8730469-1.8681641-5.9101562,0-11.4521484,1.3994141-16.4726562,4.1601562-5.0283203,2.7646484-9.0703125,6.5732422-12.0136719,11.3193359-2.9628906,4.7773438-4.4658203,10.0976562-4.4658203,15.8115234,0,5.6894531,1.5097656,11.0029297,4.4882812,15.7939453,2.9550781,4.7568359,6.9960938,8.5703125,12.0097656,11.3359375,5.0068359,2.7607422,10.5429688,4.1611328,16.4541016,4.1611328,3.8056641,0,7.4755859-.6435547,10.9072266-1.9130859,3.3945312-1.2548828,6.5400391-3.0488281,9.3496094-5.3310547.9658203-.7363281,1.4970703-1.7978516,1.4970703-2.9970703,0-.9453125-.3632812-1.8125-1.0234375-2.4423828l-.0800781-.0761719c-.6552734-.625-1.5175781-.96875-2.4287109-.96875-.5996094,0-1.5107422.1533203-2.4101562.8564453-4.9306641,3.703125-10.25,5.5810547-15.8115234,5.5810547-4.6484375,0-8.984375-1.0859375-12.8876953-3.2265625-3.8974609-2.1367188-7.0292969-5.0732422-9.3076172-8.7275391-2.2568359-3.6191406-3.4013672-7.671875-3.4013672-12.0458984,0-4.3779297,1.1396484-8.4394531,3.3867188-12.0742188,2.2617188-3.6601562,5.3886719-6.5917969,9.2929688-8.7148438,3.9208984-2.1308594,8.2666016-3.2109375,12.9169922-3.2109375,5.5683594,0,10.9072266,1.8554688,15.9238281,5.5537109.7177734.5,1.5263672.7646484,2.3388672.7646484,1.0078125,0,1.9199219-.3623047,2.6748047-1.0839844l.2978516-.2841797.5605469-1.0683594v-.1630859c.0820312-.2753906.1240234-.5585938.1240234-.8476562,0-1.0537109-.5019531-2.0380859-1.4912109-2.9267578l-.1220703-.1035156Z"/>
    <path class="st0" d="M1728.020896,1169.4706767h-35.5546875v-20.9082031h27.9931641c.9033203,0,1.7021484-.2216797,2.3798828-.6630859.9697266-.6328125,1.5253906-1.6904297,1.5253906-2.9423828,0-1.2080078-.5537109-2.2646484-1.5292969-2.9052734-.6748047-.4384766-1.4736328-.6611328-2.3759766-.6611328h-27.9931641v-18.8544922h34.7285156c.9863281,0,1.8330078-.2734375,2.5166016-.8115234.8417969-.6621094,1.3056641-1.6542969,1.3056641-2.8330078,0-1.7177734-1.1962891-3.5664062-3.8222656-3.5664062h-38.34375c-2.1289062,0-3.6162109,1.4667969-3.6162109,3.5664062v54.1855469c0,2.1230469,1.4873047,3.6054688,3.6162109,3.6054688h39.1699219c.9863281,0,1.8330078-.2734375,2.5126953-.8085938.8447266-.6611328,1.3095703-1.6542969,1.3095703-2.8369141,0-1.7177734-1.1962891-3.5664062-3.8222656-3.5664062Z"/>
  </g>
  <g>
    <path class="st1" d="M2019.109726,1003.3684821c15.1598371-2.274576-4.0571859,10.6228873,5.1944325,17.3078369,5.9441545,4.2950726,21.5654711-3.8557466,14.6070845,10.4872262-9.2251468,19.0153316-42.0405212,11.6118346-37.0898542-12.1041988,1.5292157-7.3256654,10.032801-14.6022465,17.2883372-15.6908643Z"/>
    <g>
      <g>
        <g>
          <path class="st2" d="M692.6728233,977.5181565c-23.8116596-54.8957101,7.5380922-121.8648135,64.1264256-141.9698847,83.1142324-29.5293652,171.7589275,43.1541709,146.6885511,130.6239743-28.3256237,98.8272652-169.5756569,106.4195753-210.8149768,11.3459105ZM862.493512,937.2916117c0-36.4099146-29.5326964-65.9259822-65.9631236-65.9259822s-65.9631236,29.5160676-65.9631236,65.9259822,29.5326964,65.9259822,65.9631236,65.9259822,65.9631236-29.5160676,65.9631236-65.9259822Z"/>
          <g>
            <path class="st2" d="M511.5659287,873.9361359c4.9608673,13.6135443,20.5941785,21.4879622,34.0507742,27.4031797,31.7549745,13.9587742,84.8095969,23.6596548,108.3498775,51.0684075,16.2824563,18.9582199,11.2434926,54.106898-6.7699339,71.3305712-26.8384688,25.6618038-94.342608,25.4983962-128.655307,14.6013094-5.9192982-1.879861-8.9978054-2.683878-7.4994255-9.0792184.7109642-3.034516,7.3313362-18.5217925,9.2078537-20.5840187,2.9512722-3.2433435,5.7294728-3.2557242,10.1155141-3.0574136,24.8906473,1.1254065,52.4415106,8.8717542,76.6570187-1.3383908,10.1415782-4.2760608,17.9111942-15.7994951,13.0464597-25.8937073-5.089528-10.5606534-19.6246793-15.7371173-30.7014957-20.3313154-25.2883334-10.4885382-68.6729194-20.6674086-79.4828371-46.1469907-4.3449053-10.2411854-5.4683427-26.7848469-.4595799-36.8670324.5885057-1.1846085.0963988-1.3858191,2.1410812-1.1053805Z"/>
            <path class="st1" d="M569.960753,901.8357542c-31.9018242-11.7626791-35.8473395-16.1477245-38.5924671-18.2655211-12.9018656-9.9534632-17.3446564-24.3348661-6.2655588-37.2690645,23.4765449-27.4074927,78.343989-28.027553,111.2374849-17.1788398,7.4922079,2.47103,15.8671495,3.8318431,7.7582386,12.8318431-10.2511181,11.3776146-28.1324371,3.8188381-41.3465347,3.3861386-28.5252171-.9340665-71.1089109,5.4356436-51.1109363,39.7139221,1.5850621,2.7169352,5.7546856,10.4547379,18.3197735,16.7815216Z"/>
          </g>
        </g>
        <path class="st2" d="M1417.7051518,874.2830564v163.3158784c0,3.8283649-3.4283877,4.3122857-6.4546311,4.5366691-5.1854568.3844802-37.4548191.5103206-39.8369161-.9679276-.5178332-.3213497-1.6814105-2.1776351-1.6814105-2.5698676v-164.3147523h-63.9639437v-44.9493243h174.9014085v32.3417934c0,6.934142-5.6733889,12.6075309-12.6075309,12.6075309h-50.3569761Z"/>
        <g>
          <path class="st2" d="M1236.8071236,829.3337321h45.9740845v131.7887566c.4954602,13.1267672-4.9806561,29.7570903-8.5045398,36.2376238-36.5202199,67.1618384-148.7041864,62.3997847-174.2970297-10.6930693-1.2890338-3.681465-3.0936418-15.8184586-3.0936418-18.9892795v-138.3440315h45.9740845v130.3530405c0,30.0345488,34.4859807,48.9776713,61.7657164,40.7545872,14.9938485-4.5196801,32.7597815-17.5168909,32.1813259-38.7568394v-132.3507883Z"/>
          <path class="st2" d="M982.4505225,1000.1411479c-1.0160522,0-2.4985962-3.3789062-2.4985962-4.4949341v-166.3125h-44.4749603l-1.9837506,2.0128631-.0239551,188.8253938h-.0024414v23.1885376h149.427063v-43.2193604h-100.4433594Z"/>
        </g>
      </g>
      <g>
        <path class="st2" d="M1783.8200767,937.06539c0,60.5356716-49.1015052,109.6095295-109.6712814,109.6095295s-109.6712814-49.0738579-109.6712814-109.6095295,49.1015052-109.6095295,109.6712814-109.6095295,109.6712814,49.0738579,109.6712814,109.6095295ZM1740.4708595,937.3621167c0-36.4077165-29.5309135-65.9220022-65.9591413-65.9220022s-65.9591413,29.5142857-65.9591413,65.9220022,29.5309135,65.9220022,65.9591413,65.9220022,65.9591413-29.5142857,65.9591413-65.9220022Z"/>
        <path class="st1" d="M1524.9079984,849.0604828c5.9004789,6.2945435,21.2547464-4.5371567,18.3076368,8.3081325-3.7945319,16.5388689-32.8729976,20.00979-39.3476069,2.2224027-5.0272895-13.8112341,5.4230603-27.1917355,19.4175832-28.1953556,11.5164388-.8259038-4.0589762,11.6040265,1.6223869,17.6648204Z"/>
      </g>
    </g>
  </g>
  <path class="st2" d="M1504.8046908,884.7264491c-3.3939251,0-6.1452449,2.7513199-6.1452449,6.1452449v7.2898963h0l.000061,142.7982222c0,.074356.0608368.1351928.1351929.1351928h43.8400269v-143.1576169c0-7.2962003-5.914739-13.2109393-13.2109393-13.2109393h-24.6190965Z"/>
  <path class="st2" d="M1937.72219,843.6962775v105.8532567c-15.8828735-15.1317749-32.3276978-29.7402344-48.296936-44.7868652-22.8215332-21.5032349-48.1011353-49.7538452-71.9365234-68.9459229-2.3649292-1.9041748-4.8660889-4.4998169-7.9871826-3.0004883-.4458008.2141724-2.0161133,1.8688965-2.0161133,2.0112915v206.2674561h42.975769l.5097046-113.8815918c40.3269043,36.5369263,79.0670166,74.8184204,118.9154663,111.8912964,2.1262207,3.2487183,14.4993286,3.9694824,14.4993286.4919434v-207.2276001h-35.3362889c-6.2558532,0-11.3272243,5.0713711-11.3272243,11.3272243Z"/>
</svg>